<?xml version="1.0" encoding="utf-8"?>
<!-- Generator: Adobe Illustrator 21.1.0, SVG Export Plug-In . SVG Version: 6.00 Build 0)  -->
<svg version="1.1" id="レイヤー_1" xmlns="http://www.w3.org/2000/svg" xmlns:xlink="http://www.w3.org/1999/xlink" x="0px"
	 y="0px" viewBox="0 0 300 362" style="enable-background:new 0 0 300 362;" xml:space="preserve">
<style type="text/css">
	.st0{fill:none;stroke:#EC6100;stroke-width:10;stroke-miterlimit:10;}
	.st1{fill:none;stroke:#000000;stroke-width:10;stroke-miterlimit:10;}
</style>
<g>
	<path d="M14.173,343.5c-7.539,0-13.673-6.134-13.673-13.673V58.173c0-7.54,6.134-13.673,13.673-13.673h271.654
		c7.539,0,13.673,6.134,13.673,13.673v271.654c0,7.539-6.134,13.673-13.673,13.673H14.173z"/>
	<path d="M285.827,45C293.091,45,299,50.909,299,58.173v271.654c0,7.264-5.909,13.173-13.173,13.173H14.173
		C6.909,343,1,337.091,1,329.827V58.173C1,50.909,6.909,45,14.173,45H285.827 M285.827,44H14.173C6.378,44,0,50.378,0,58.173
		v271.654C0,337.622,6.378,344,14.173,344h271.654c7.795,0,14.173-6.378,14.173-14.173V58.173C300,50.378,293.622,44,285.827,44
		L285.827,44z"/>
</g>
<polyline class="st0" points="0,195 102,195 123,111 143,207 161,140 177,179 200,138 225,300 258,83 285,146 263,170 "/>
<rect x="35" y="347" class="st1" width="50" height="10"/>
<rect x="215" y="347" class="st1" width="50" height="10"/>
<rect x="111" y="5" class="st1" width="80" height="10"/>
<rect x="95" y="5" class="st1" width="10" height="39"/>
<rect x="196" y="5" class="st1" width="10" height="39"/>
</svg>
